<svg width="377" height="135" xmlns="http://www.w3.org/2000/svg" version="1.1" xml:space="preserve">
 <defs>
  <linearGradient id="SVGID_1_" x1="0.49997" y1="-0.55667" x2="0.49997" y2="1.48598">
   <stop offset="0" stop-color="#FF0000"/>
   <stop offset="1" stop-color="#A41622"/>
  </linearGradient>
  <linearGradient id="SVGID_2_" x1="0.5001" y1="-0.02206" x2="0.5001" y2="1.30434">
   <stop offset="0" stop-color="#FF0000"/>
   <stop offset="1" stop-color="#A41622"/>
  </linearGradient>
  <linearGradient id="SVGID_3_" x1="0.50007" y1="-0.37852" x2="0.50007" y2="0.95974">
   <stop offset="0" stop-color="#FF0000"/>
   <stop offset="1" stop-color="#A41622"/>
  </linearGradient>
  <linearGradient id="SVGID_4_" x1="0.50001" y1="-0.5577" x2="0.50001" y2="1.40605">
   <stop offset="0" stop-color="#FF0000"/>
   <stop offset="1" stop-color="#A41622"/>
  </linearGradient>
  <linearGradient id="SVGID_5_" x1="0.50007" y1="-0.03357" x2="0.50007" y2="1.27685">
   <stop offset="0" stop-color="#FF0000"/>
   <stop offset="1" stop-color="#A41622"/>
  </linearGradient>
  <linearGradient id="SVGID_6_" x1="0.49992" y1="-0.58297" x2="0.49992" y2="1.38783">
   <stop offset="0" stop-color="#FF0000"/>
   <stop offset="1" stop-color="#A41622"/>
  </linearGradient>
  <linearGradient id="SVGID_7_" x1="0.49986" y1="-0.20175" x2="0.49986" y2="1.28348">
   <stop offset="0" stop-color="#FF0000"/>
   <stop offset="1" stop-color="#A41622"/>
  </linearGradient>
 </defs>
 <g class="currentLayer">
  <title>Layer 1</title>
  <g id="svg_1">
   <path class="st0" d="m61.12049,37.26146l-0.07,5.06l-11.64,15.92001c-6.17,8.48 -10.14,13.96 -11.91,16.44c-4.32,6.08 -8.16,11.69 -11.52,16.84c4.93,0.07 9.9,0.01 14.92,-0.18c11.68,-0.44 17.83,-0.66 18.43,-0.65c-0.19,1.04 -0.35,1.9 -0.49,2.59c-0.14,0.69 -0.21,1.29 -0.22,1.81c-0.01,0.43 0.05,1.04 0.17,1.82c0.12,0.78 0.26,1.65 0.42,2.6l-56.04,-0.78l0.07,-5.32c5.99,-8.05 11.86,-16.14 17.6,-24.28c5.29,-7.45 10.99,-15.68 17.08,-24.68c-4.76,-0.07 -10.38,0.07 -16.87,0.41c-6.49,0.34 -10.82,0.5 -12.98,0.47c0.19,-1.04 0.35,-1.9 0.49,-2.59c0.14,-0.69 0.21,-1.29 0.22,-1.81c0.01,-0.86 -0.06,-1.77 -0.22,-2.73c-0.25,-0.78 -0.37,-1.35 -0.37,-1.69l52.93,0.74999z" id="svg_2" fill="url(#SVGID_1_)"/>
   <path class="st1" d="m73.13049,13.68146c0.04,-2.68 1.06,-5.05 3.08,-7.09c2.02,-2.05 4.41,-3.05 7.18,-3.01c2.77,0.04 5.18,1.07 7.22,3.09c2.05,2.02 3.05,4.45 3.01,7.31c-0.04,2.77 -1.09,5.15 -3.15,7.16c-2.06,2 -4.52,2.99 -7.37,2.95s-5.24,-1.09 -7.16,-3.15c-1.91001,-2.07999 -2.85,-4.49 -2.81,-7.26zm0.09,86.68001l0.88,-62.92c1.47,0.19 3.13,0.37 4.99,0.52c1.86,0.16 3.18,0.24 3.95,0.25c1.9,0.03 3.63,-0.04 5.19,-0.19c1.56,-0.15 2.81,-0.26 3.77,-0.34l-0.88,62.92c-1.47,-0.2 -2.55,-0.3 -3.24,-0.3c-3.03,-0.3 -4.92,-0.46 -5.7,-0.47c-1.9,-0.03 -3.63,0.03 -5.19,0.19c-1.57,0.14999 -2.82,0.25999 -3.77,0.34z" id="svg_3" fill="url(#SVGID_2_)"/>
   <path class="st2" d="m111.93049,133.85146l16.94,-33.24l-25.33,-62.77c1.38,0.02 3.26,0.15 5.63,0.4c2.37,0.25 3.78,0.38 4.21,0.38c1.38,0.02 3.27,-0.06 5.65,-0.25c2.38,-0.18 3.79,-0.27 4.22,-0.27c2.41,7.04 4.82,13.86 7.24,20.47c1.92,5.13 4.5,11.83 7.76,20.09l5.16,-13.13c1.7,-4.39 3.44,-8.82 5.23,-13.3c1.79,-4.48 3.45,-9.04 4.98,-13.69l5.31,0.46l5.32,-0.31l-13.52,29.53c-2.14,4.64 -5.31,11.76 -9.51,21.34c-4.2,9.59 -7.37,16.96 -9.52,22.12001c-2.77,6.62 -5.73,14.06 -8.87,22.32l-5.44,-0.47l-5.46,0.31999z" id="svg_4" fill="url(#SVGID_3_)"/>
   <path class="st3" d="m221.8905,55.72147l-0.49,35.29c-0.03,2.42 0.4,4.05 1.29,4.88c0.9,0.84 2.64,1.27 5.24,1.31l-0.04,2.98c-1.66,0.76 -3.63,1.51 -5.94,2.25c-2.3,0.75 -4.23,1.11 -5.79,1.09c-2.94,-0.04 -5.55,-0.92 -7.81,-2.64c-2.27,-1.72 -3.9,-4.05 -4.9,-7.01c-1.77,3 -4.14,5.31 -7.1,6.91c-2.96,1.6 -6.18,2.38 -9.64,2.33c-5.54,-0.08 -9.93,-1.57 -13.17,-4.47c-3.5,-3.16 -5.22,-7.47 -5.14,-12.92c0.08,-5.88 2.04,-10.22 5.89,-13.02c3.15,-2.29 9.19,-4.46 18.13,-6.49c2,-0.49 3.6,-0.9 4.82,-1.23c1.91,-0.58 3.48,-1.25 4.7,-2.01c0.7,-0.68 1.21,-1.41 1.52,-2.18c0.31,-0.77 0.48,-1.72 0.49,-2.85c0.04,-3.03 -1.2,-5.7 -3.72,-8.03c-2.52,-2.33 -5.34,-3.51 -8.45,-3.56c-3.72,-0.05 -7.32,0.94 -10.81,2.96c-2.88,1.69 -4.59,3.31 -5.13,4.86l-0.91,-0.01l-1.57,-8.07c2.98,-2.64 6.66,-4.67 11.05,-6.08c4.39,-1.41 8.74,-2.08 13.07,-2.02c6.49,0.09 11.92,1.42 16.29,3.99c5.49999,3.18999 8.2,7.76999 8.12,13.74zm-18.26001,25.05l0.18,-12.58c-2.61,0.92 -4.69,1.62 -6.26,2.12c-2.87,1 -5.09,2.11 -6.66,3.35c-1.57,1.23 -2.68,2.71 -3.31,4.43c-0.63,1.72 -0.96,3.79 -1,6.21c-0.04,2.94 0.46,5.41 1.52,7.42c1.05,2.01 2.88,3.02 5.47,3.06c3.63,0.05 6.29,-1.42 7.98,-4.43c1.34001,-2.41 2.03001,-5.60001 2.08,-9.58z" id="svg_5" fill="url(#SVGID_4_)"/>
   <path class="st4" d="m241.46049,48.08147l-9.6,-0.13c0.18,-0.86 0.29,-2.2 0.32,-4.02l0.02,-1.56c0.01,-0.43 0.02,-1.34 0.04,-2.72l9.54,0.13c0.66,-4.13 1.5,-7.91 2.54,-11.34c1.04,-3.43 2.52,-6.77 4.46,-10.02c2.82,-4.79 5.83,-8.28 9.04,-10.48c3.21,-2.2 7.1,-3.26 11.65,-3.2c0.94,0.01 1.76,0.02 2.45,0.03c0.69,0.01 1.93,0.2 3.74,0.57c-0.28,1.47 -0.48,3.35 -0.6,5.64c-0.12,2.29 -0.18,3.61 -0.18,3.96c-0.02,1.21 -0.03,2.4 -0.05,3.57c-0.02,1.17 0.01,2.27 0.08,3.31l-1.7,0.63c-2.06,-1.07 -4.02,-1.96 -5.87,-2.68c-1.85,-0.72 -3.68,-1.09 -5.5,-1.11c-1.9,-0.03 -3.35,0.02 -4.35,0.13c-1,0.12 -1.93,0.6 -2.81,1.44c-0.26,0.26 -0.53,0.51 -0.79,0.76c-0.53,0.59 -0.8,1.24 -0.81,1.92c-0.02,1.55 0.67,4.35 2.09,8.41c1,2.94 2.12,5.83 3.38,8.69l13.1,0.18c-0.1,0.78 -0.17,1.58 -0.23,2.4c-0.06,0.82 -0.08,1.41 -0.09,1.75c-0.01,0.69 -0.03,2.08 -0.06,4.15l-11.94,-0.17l-0.76,54.61999c-1.47,-0.2 -2.55,-0.3 -3.24,-0.3c-3.02,-0.3 -4.92,-0.46 -5.7,-0.47c-1.9,-0.03 -3.63,0.03 -5.19,0.19c-1.56,0.15 -2.82,0.26 -3.77,0.34l0.79,-54.61999z" id="svg_6" fill="url(#SVGID_5_)"/>
   <path class="st5" d="m332.08049,72.57146l-37.1,-0.52c-0.11,7.52 1.07,13.25 3.52,17.18c2.87,4.71 7.6,7.11 14.17,7.2c2.68,0.04 5.33,-0.44 7.94,-1.45s5.05,-2.4 7.32,-4.18l1.54,1.19l-2.96,7.23c-5.59,3.82 -11.8,5.67 -18.63,5.58c-10.64,-0.15 -18.68,-3.25 -24.13,-9.29c-5.45,-6.04 -8.1,-14.47 -7.95,-25.28c0.13,-9.25 2.89,-16.72 8.29,-22.4c5.4,-5.68 12.68,-8.45 21.85,-8.32c9.6,0.13 16.52,3.34 20.76,9.63c3.71999,5.5 5.51998,13.31 5.38,23.43zm-37.02002,-6.75l19.2,0.27c0.07,-5.36 -0.3,-9.65 -1.12,-12.86c-1.31,-5.21 -3.7,-7.84 -7.16,-7.89c-4.15,-0.06 -7.13,2.45 -8.93,7.53c-1.24998,3.54001 -1.91999,7.85001 -1.99,12.95z" id="svg_7" fill="url(#SVGID_6_)"/>
   <path class="st6" d="m365.22047,49.80147l-0.52,36.97c-0.06,4.24 0.27,7.25 0.98,9.03c0.71,1.78 2.45,2.69 5.22,2.73c1.64,0.02 3.55,-0.25 5.72,-0.83l-0.07,5.06c-5.3,1.92 -9.82,2.85 -13.53,2.8c-6.23,-0.09 -10.61,-2.14 -13.15,-6.15c-2.12,-3.32 -3.13,-8.35 -3.03,-15.09l0.49,-34.77l-8.82,-0.12c0.18,-0.78 0.28,-1.55 0.29,-2.33c0.01,-0.78 0.02,-1.38 0.03,-1.82l0.02,-1.43c0.01,-0.43 0.01,-0.86 0.02,-1.3c0.01,-0.6 0.02,-1.08 0.02,-1.43l8.56,0.12l0.2,-14.58c2.17,-0.83 5,-1.99 8.48,-3.49c3.48,-1.5 6.66,-2.92 9.53,-4.25l-0.32,22.57l11.03,0.15c-0.1,0.78 -0.17,1.58 -0.23,2.4c-0.06,0.82 -0.08,1.41 -0.09,1.75c-0.01,0.69 -0.02,1.34 -0.03,1.95c-0.01,1.04 -0.02,1.77 -0.03,2.21l-10.77,-0.15z" id="svg_8" fill="url(#SVGID_7_)"/>
  </g>
 </g>
 <g>
  <title>Layer 2</title>
  <rect id="backgroundrect" width="360" height="640" x="0" y="0" fill="none"/>
 </g>
</svg>